PathFileType	4	(X/Y/Z)	c:/Users/goper/Files/vsCode/490R/osim_files/A02/A02_PWS_01.trc
DataRate	CameraRate	NumFrames	NumMarkers	Units                	OrigDataRate	OrigDataStartFrame	OrigNumFrames
250.00	250.00	5	36	mm	250.0	1480	2958
                Frame#	Time	Mobility_markerset:LPSIS			Mobility_markerset:LASIS			Mobility_markerset:LTH1			Mobility_markerset:LTH2			Mobility_markerset:LTH3			Mobility_markerset:LTH4			Mobility_markerset:LLFE			Mobility_markerset:LMFE			Mobility_markerset:LSH1			Mobility_markerset:LSH2			Mobility_markerset:LSH3			Mobility_markerset:LSH4			Mobility_markerset:LLMAL			Mobility_markerset:LMMAL			Mobility_markerset:LCAL			Mobility_markerset:LMTP5			Mobility_markerset:LTOE			Mobility_markerset:LMTP1			Mobility_markerset:RPSIS			Mobility_markerset:RASIS			Mobility_markerset:RTH1			Mobility_markerset:RTH2			Mobility_markerset:RTH3			Mobility_markerset:RTH4			Mobility_markerset:RLFE			Mobility_markerset:RMFE			Mobility_markerset:RSH1			Mobility_markerset:RSH2			Mobility_markerset:RSH3			Mobility_markerset:RSH4			Mobility_markerset:RLMAL			Mobility_markerset:RMMAL			Mobility_markerset:RCAL			Mobility_markerset:RMTP1			Mobility_markerset:RTOE			Mobility_markerset:RMTP5		
		X1	Y1	Z1	X2	Y2	Z2	X3	Y3	Z3	X4	Y4	Z4	X5	Y5	Z5	X6	Y6	Z6	X7	Y7	Z7	X8	Y8	Z8	X9	Y9	Z9	X10	Y10	Z10	X11	Y11	Z11	X12	Y12	Z12	X13	Y13	Z13	X14	Y14	Z14	X15	Y15	Z15	X16	Y16	Z16	X17	Y17	Z17	X18	Y18	Z18	X19	Y19	Z19	X20	Y20	Z20	X21	Y21	Z21	X22	Y22	Z22	X23	Y23	Z23	X24	Y24	Z24	X25	Y25	Z25	X26	Y26	Z26	X27	Y27	Z27	X28	Y28	Z28	X29	Y29	Z29	X30	Y30	Z30	X31	Y31	Z31	X32	Y32	Z32	X33	Y33	Z33	X34	Y34	Z34	X35	Y35	Z35	X36	Y36	Z36

1480	5.91600	42.70983	990.31415	375.42230	-99.57428	952.72546	461.26419	-11.57681	695.34564	471.24823	-25.59485	650.12103	466.19547	-67.67003	704.12128	495.91052	-72.43864	659.88898	486.26590	0.00000	0.00000	0.00000	0.00000	0.00000	0.00000	-13.10527	417.27783	426.20184	-5.51017	373.25952	431.32697	-71.80633	403.53027	440.13205	-57.08371	361.42953	442.94812	-5.14020	122.10990	392.77707	-21.23195	127.02873	312.07944	62.31253	119.22186	346.93112	-81.17464	41.90249	409.83072	-136.35730	50.69863	345.68823	-92.66365	35.50189	298.47018	32.43067	1007.61743	275.35413	-125.38414	981.90955	217.45515	-96.62314	656.40295	177.86349	-103.26418	612.75061	177.71730	-159.35960	658.25934	184.32204	-155.42189	615.94263	180.14853	-122.68914	500.93091	166.87775	-134.39383	499.76355	300.16544	-102.96536	315.96011	182.92982	-105.48083	269.50031	192.86151	-162.77945	314.50211	183.36536	-157.43527	267.80255	189.29289	-99.08365	107.09174	189.23521	-106.05981	109.42596	272.77625	-44.99306	86.97094	229.59819	-231.30135	73.35766	272.91672	-253.96956	85.81889	238.81267	-226.88695	72.90823	179.53886
1481	5.92000	38.78926	990.59778	375.44693	-103.38414	952.76587	461.17511	-14.29061	695.56342	471.29871	-28.04139	650.30688	466.20453	-70.34417	704.13660	495.89343	-74.95746	659.90875	486.30820	0.00000	0.00000	0.00000	-123.33232	470.86090	324.88919	-13.94207	417.64484	425.85742	-6.56352	373.43085	431.19556	-72.82761	403.45679	440.03708	-58.00064	361.40784	442.86960	-5.26486	122.29218	392.70685	-21.41074	127.13367	311.98499	62.07690	119.37955	346.81030	-81.24237	41.81827	409.83923	-136.01306	50.48748	345.70587	-92.65618	35.47404	298.42029	28.48822	1007.77118	275.40704	-129.19289	981.82568	217.33807	-102.41508	655.62390	178.15215	-109.45981	612.16010	177.98708	-165.14003	658.29248	184.35397	-161.70885	615.90417	180.32372	-130.22888	500.53589	167.09187	-142.62831	499.45041	300.16916	-113.39906	315.21875	183.14426	-116.62434	268.84091	193.02733	-173.16339	314.79465	183.33725	-168.57120	267.95502	189.26424	-113.15044	106.19274	189.09613	-120.01457	108.66628	272.97916	-59.21949	85.38837	229.92355	-245.77225	74.28857	272.58951	-268.12024	87.43523	238.34804	-240.94165	74.20862	179.64175
1482	5.92400	34.93213	990.81976	375.39664	-107.19146	952.68585	461.12921	-16.97343	695.74982	471.32907	-30.54678	650.43628	466.23486	-73.10847	704.06177	495.92859	-77.48797	659.85297	486.32727	0.00000	0.00000	0.00000	-124.62930	470.80420	324.67795	-15.45115	417.44104	425.89468	-7.58750	373.51822	430.99338	-73.96246	403.30728	439.97507	-58.88340	361.34686	442.76089	-5.42288	122.40395	392.61386	-21.57101	127.19448	311.88034	61.81984	119.48454	346.71671	-81.23121	41.82298	409.88538	-136.25764	50.43292	345.73508	-92.64608	35.48214	298.36627	24.69787	1007.94208	275.35950	-133.00578	981.67169	217.25502	-108.18275	654.88666	178.49777	-115.86888	611.43011	178.40216	-171.10062	658.05273	184.64027	-167.90002	615.80286	180.44273	-137.69600	500.08829	167.30125	-150.41605	499.15814	300.47989	-123.80126	314.51273	183.38628	-127.81194	268.17245	193.22484	-183.60953	314.97656	183.35373	-179.73061	268.11127	189.28741	-126.85513	105.45160	189.27675	-134.03491	108.01920	273.12842	-72.22942	84.73257	230.49289	-260.12604	75.67825	272.29016	-282.14340	89.03091	237.99380	-254.97865	75.48611	179.45459
1483	5.92800	31.01287	990.98529	375.39697	-111.08565	952.66937	461.06577	-19.71394	695.94476	471.36920	-33.10013	650.55035	466.24902	-75.86082	704.01178	495.96811	-80.03847	659.76038	486.32462	0.00000	0.00000	0.00000	-126.27998	470.36783	324.84705	-16.53855	417.54852	425.64651	-8.49160	373.64462	430.81168	-74.98023	403.19183	439.89932	-59.88106	361.25500	442.58755	-5.55219	122.51021	392.50516	-21.70731	127.21097	311.73389	61.67867	119.57881	346.56186	-81.22885	41.82191	409.88092	-136.31511	50.38937	345.73093	-93.34457	35.16057	298.54459	20.75219	1007.98523	275.42029	-136.90718	981.69098	216.74075	-113.82411	654.17267	178.87601	-122.11383	610.67114	178.67383	-176.85925	657.87439	184.80331	-174.12123	615.69940	180.57829	-145.30745	499.61835	167.57906	-158.44884	498.79758	300.58109	-134.20296	313.85135	183.64001	-139.10036	267.42264	193.50644	-193.98477	315.20883	183.36502	-190.85179	268.29532	189.39253	-140.47800	104.85049	189.44730	-147.87233	107.47270	273.30170	-87.48740	82.36752	230.64983	-274.57870	77.22582	272.02359	-296.27661	90.87550	237.50307	-269.04434	76.88120	179.19052
1484	5.93200	27.13828	991.07837	375.36798	-114.92567	952.56012	460.95111	-22.45939	696.07544	471.38660	-35.59691	650.62469	466.28067	-78.59798	703.91150	495.94440	-82.54173	659.67065	486.32138	-96.04449	485.97165	437.53632	-127.92345	469.89172	324.97018	-17.68851	417.60486	425.48999	-9.52381	373.71747	430.57834	-75.89173	403.07367	439.77557	-60.76889	361.14908	442.43750	-5.71930	122.53112	392.36072	-21.81696	127.20351	311.57516	61.62629	119.66608	346.38123	-81.23529	41.83404	409.86896	-136.31949	50.36456	345.70193	-93.30603	35.15789	298.45459	16.95184	1008.02429	275.38269	-140.69962	981.35956	216.67238	-119.69096	653.24152	179.25844	-128.35664	609.89899	179.00130	-182.67152	657.69843	184.98465	-180.19652	615.55804	180.69472	-152.72331	499.15472	167.85800	-166.81987	498.40683	300.51187	-144.62390	313.21686	183.94232	-150.12584	266.88623	193.71089	-204.31729	315.43405	183.38924	-201.88255	268.54089	189.59352	-153.97946	104.34360	189.65506	-161.73465	107.11336	273.44000	-101.67333	81.02031	231.08647	-288.86841	78.80350	271.94833	-310.22488	92.67191	237.02907	-282.97122	78.27483	178.93898
